<?xml version="1.0" encoding="utf-8"?>
<!-- Generator: Adobe Illustrator 20.0.0, SVG Export Plug-In . SVG Version: 6.00 Build 0)  -->
<svg version="1.1" id="ロゴ_xFF1A_DIC2600" xmlns="http://www.w3.org/2000/svg" xmlns:xlink="http://www.w3.org/1999/xlink"
	 x="0px" y="0px" viewBox="0 0 284 37" style="enable-background:new 0 0 284 37;" xml:space="preserve">
<style type="text/css">
	.st0{fill:#326BC9;}
</style>
<g>
	<g>
		<g>
			<polygon class="st0" points="51.4,6.6 56.8,6.6 68.3,24.9 68.3,6.6 72,6.6 72,29.4 66.9,29.4 55.1,11.1 55.1,29.4 51.4,29.4 			
				"/>
			<polygon class="st0" points="129,6.6 134.4,6.6 145.9,24.9 145.9,6.6 149.6,6.6 149.6,29.4 144.5,29.4 132.7,11.1 132.7,29.4 
				129,29.4 			"/>
			<polygon class="st0" points="262.9,6.6 268.3,6.6 279.8,24.9 279.8,6.6 283.5,6.6 283.5,29.4 278.4,29.4 266.6,11.1 266.6,29.4 
				262.9,29.4 			"/>
			<rect x="76.1" y="6.6" class="st0" width="3.8" height="22.8"/>
			<polygon class="st0" points="97,29.4 100.8,29.4 100.8,6.6 97,6.6 97,15.6 87.9,15.6 87.9,6.6 84.1,6.6 84.1,29.4 87.9,29.4 
				87.9,18.9 97,18.9 			"/>
			<polygon class="st0" points="216.5,29.4 220.3,29.4 220.3,6.6 216.5,6.6 216.5,15.6 207.5,15.6 207.5,6.6 203.7,6.6 203.7,29.4 
				207.5,29.4 207.5,18.9 216.5,18.9 			"/>
			<polygon class="st0" points="161,6.6 164.8,6.6 164.8,17.3 173.9,6.6 178.2,6.6 169.2,17.5 178.6,29.4 174,29.4 164.8,17.8 
				164.8,29.4 161,29.4 			"/>
			<polygon class="st0" points="245.2,6.6 259.2,6.6 259.2,10 248.9,10 248.9,15.8 258.8,15.8 258.8,19 248.9,19 248.9,26 259.7,26 
				259.7,29.4 245.2,29.4 			"/>
			<path class="st0" d="M232.6,6.6h-8.1v22.8h8.3c6,0,9.8-4.3,9.8-11.4C242.5,10.3,238.3,6.7,232.6,6.6z M228.1,26.1V9.9h2.9
				c0.8,0,1.6,0,2.2,0.1c1.6,0.3,5.3,1.3,5.3,8.1c0,6.9-3.6,7.8-5.3,8c-0.6,0.1-1.4,0.1-2.2,0.1H228.1z"/>
			<path class="st0" d="M107.3,17.9c0-3.3,0.9-8.7,7.4-8.7c6.5,0,7.4,5.5,7.4,8.7s-0.9,8.7-7.4,8.7
				C108.2,26.7,107.3,21.2,107.3,17.9z M114.8,29.9c9.4,0,11.3-7.5,11.3-12c0-4.5-1.9-12-11.3-12c-9.7,0-11.3,7.5-11.3,12
				C103.5,22.4,105.4,29.9,114.8,29.9z"/>
			<path class="st0" d="M181.9,17.9c0-3.3,0.9-8.7,7.4-8.7c6.5,0,7.5,5.5,7.5,8.7s-0.9,8.7-7.5,8.7
				C182.9,26.7,181.9,21.2,181.9,17.9z M189.4,29.9c9.4,0,11.3-7.5,11.3-12c0-4.5-1.9-12-11.3-12c-9.7,0-11.3,7.5-11.3,12
				C178.1,22.4,180,29.9,189.4,29.9z"/>
		</g>
	</g>
	<g>
		<polygon class="st0" points="0,0 0,28.8 37.1,0 		"/>
		<g>
			<path class="st0" d="M36.7,11v17.8c-5.9-1.5-12-2.3-18.4-2.3c-5.9,0-11.6,0.7-17.1,2L36.7,11z"/>
			<path class="st0" d="M0,30.7v6.1h36.7v-6.1c-5.9-1.5-12-2.3-18.4-2.3C12,28.3,5.9,29.1,0,30.7z"/>
		</g>
	</g>
</g>
</svg>
